HIERARCHY
ROOT Hips
{
  OFFSET -268.951 87.1254 -235.468
  CHANNELS 6 Xposition Yposition Zposition Zrotation Xrotation Yrotation
  JOINT ToSpine
  {
    OFFSET -0.0105055 1.38907 -7.13956
    CHANNELS 3 Zrotation Xrotation Yrotation
    JOINT Spine
    {
      OFFSET 0.0105055 10 1
      CHANNELS 3 Zrotation Xrotation Yrotation
      JOINT Spine1
      {
        OFFSET 0 12 1.60637
        CHANNELS 3 Zrotation Xrotation Yrotation
        JOINT Neck
        {
          OFFSET 0 27 2.26658
          CHANNELS 3 Zrotation Xrotation Yrotation
          JOINT Head
          {
            OFFSET 0 9 2.12705
            CHANNELS 3 Zrotation Xrotation Yrotation
            End Site
            {
              OFFSET 0 11 2
            }
          }
        }
        JOINT LeftShoulder
        {
          OFFSET 8 19.6109 2.86452
          CHANNELS 3 Zrotation Xrotation Yrotation
          JOINT LeftArm
          {
            OFFSET 12 1 0.681055
            CHANNELS 3 Zrotation Xrotation Yrotation
            JOINT LeftForeArm
            {
              OFFSET 19 0 -1.52608
              CHANNELS 3 Zrotation Xrotation Yrotation
              JOINT LeftHand
              {
                OFFSET 23 0 0
                CHANNELS 3 Zrotation Xrotation Yrotation
                End Site
                {
                  OFFSET 10 0 0
                }
              }
            }
          }
        }
        JOINT RightShoulder
        {
          OFFSET -8 19.6109 2.86452
          CHANNELS 3 Zrotation Xrotation Yrotation
          JOINT RightArm
          {
            OFFSET -12 1 0.681055
            CHANNELS 3 Zrotation Xrotation Yrotation
            JOINT RightForeArm
            {
              OFFSET -19 0 -1.52608
              CHANNELS 3 Zrotation Xrotation Yrotation
              JOINT RightHand
              {
                OFFSET -23 0 0
                CHANNELS 3 Zrotation Xrotation Yrotation
                End Site
                {
                  OFFSET -10 0 0
                }
              }
            }
          }
        }
      }
    }
  }
  JOINT LeftUpLeg
  {
    OFFSET 9 -7.17245 0
    CHANNELS 3 Zrotation Xrotation Yrotation
    JOINT LeftLeg
    {
      OFFSET 0 -44.1113 0
      CHANNELS 3 Zrotation Xrotation Yrotation
      JOINT LeftFoot
      {
        OFFSET 0 -36.1829 0
        CHANNELS 3 Zrotation Xrotation Yrotation
        JOINT LeftToeBase
        {
          OFFSET 0 -4.84184 13
          CHANNELS 3 Zrotation Xrotation Yrotation
          End Site
          {
            OFFSET 0 1 6
          }
        }
      }
    }
  }
  JOINT RightUpLeg
  {
    OFFSET -9 -7.17245 0
    CHANNELS 3 Zrotation Xrotation Yrotation
    JOINT RightLeg
    {
      OFFSET 0 -44.0551 0
      CHANNELS 3 Zrotation Xrotation Yrotation
      JOINT RightFoot
      {
        OFFSET 0 -36.1469 0
        CHANNELS 3 Zrotation Xrotation Yrotation
        JOINT RightToeBase
        {
          OFFSET 0 -4.92256 13
          CHANNELS 3 Zrotation Xrotation Yrotation
          End Site
          {
            OFFSET 0 1 6
          }
        }
      }
    }
  }
}
MOTION
Frames:	12
Frame Time:	0.0333333
-268.951 87.1254 -235.468 2.9908 -4.96875 46.0052 0 0 0 14.2177 8.54829 3.59979 -9.37828 1.99921 5.77617 5.2932 -3.44854 -3.57915 -2.9241 5.20967 -1.27455 -26.5329 3.13042 -6.05667 -40.4221 12.0791 4.14969 -33.9826 4.66557 -96.8806 -13.1576 -0.990119 8.56938 19.1422 4.95315 15.62 33.2942 -2.00082 -8.52813 26.7171 2.26021 94.4803 -5.80313 0.0108614 -0.214291 1.67685 -40.4045 10.7937 -1.22531e-007 37.7958 -6.20557 18.199 -2.7201 0.435743 1.38579 -16.6606 -2.73236 2.46583 8.38917 -11.5 9.26345e-008 46.3258 4.27576 -37.3681 -23.906 -8.18971 7.42833 -31.849 -8.43655 
-261.581 88.6668 -227.49 3.93084 -7.47236 47.2694 0 0 0 15.7125 6.30345 5.00291 -9.28847 3.99525 6.93959 7.23326 -0.0514105 -6.01436 -3.36452 5.24981 -2.83497 -25.7605 3.26358 -6.69261 -39.8429 11.8018 5.93826 -31.7817 4.23723 -96.8005 -11.7892 -0.801315 7.74962 18.1742 4.80656 15.7242 36.8527 -0.758382 -9.89791 24.4983 0.997814 92.1885 -6.33072 0.0271777 -0.491437 1.95019 -32.9 10.691 -2.21947 19.606 -13.2085 12.9547 1.26879 -0.144058 1.27558 -16.3221 -1.77114 4.40243 19.4733 -11.2973 -4.67996e-008 38.4783 6.79036 -25.4259 -11.4923 -2.60091 10.31 -34.2781 3.02644 
-255.022 89.7876 -219.658 1.97985 -8.05986 48.1666 0 0 0 15.7596 1.50082 6.45 -7.84584 4.58902 7.57168 10.6419 5.92279 -7.80413 -3.17538 3.36429 -3.26608 -22.8938 3.13922 -7.21978 -42.2771 13.7743 8.26664 -36.7235 5.15228 -96.8641 -6.4734 -0.314931 5.56459 17.725 4.74641 15.8058 39.5656 0.698628 -10.1973 24.2115 -0.463059 88.9703 -2.23273 0.0132301 -0.678922 3.23731 -31.2119 4.73355 -3.69723 12.8399 -8.90127 8.6862 3.69749 -0.280909 0.841337 -11.37 -0.597401 8.1365 21.741 -6.52777 9.36258e-008 39.1408 11.3749 -16.6554 -1.00645 -0.147326 5.66611 -22.4834 -5.87056 
-248.55 89.576 -213.125 1.33725 -7.59408 45.8615 0 0 0 17.2094 -3.11797 8.38466 -9.20909 8.90705 9.62372 11.8362 6.72894 -8.63595 -3.73847 3.86205 -3.45363 -22.2595 3.10111 -7.31112 -41.7026 13.6841 8.35995 -35.648 5.04542 -96.9909 -8.36059 -0.484031 6.61511 16.8796 4.38537 14.9411 41.9806 1.34113 -11.6757 21.4827 -0.494143 88.7446 8.06115 -0.0428527 -0.608153 4.26765 -30.2992 9.81296 -3.12783 17.2481 -11.4577 9.91417 4.37282 -0.379455 1.07593 -13.5001 -1.39547 6.40809 20.1957 -4.03945 9.12578e-007 46.7919 13.3925 -23.0326 5.06115 1.03185 3.94539 -14.9258 -7.89274 
-242.964 89.2196 -207.302 2.88902 -7.87393 45.1559 0 0 0 14.709 -3.24573 7.70991 -8.10706 10.9795 9.05664 11.875 6.10652 -7.83225 -4.70879 5.16268 -2.3842 -23.7425 3.32984 -7.56376 -39.4122 12.5733 10.2426 -35.574 5.92197 -98.2083 -8.69916 -0.584056 7.66741 17.0363 4.41284 14.9437 43.1164 1.70936 -10.2216 23.1466 -0.348229 89.1855 13.7095 -0.212636 -1.7687 4.1196 -29.533 18.3629 -0.14396 27.12 -23.9643 12.7602 15.1038 -1.69858 1.38662 -19.1474 -1.14747 4.09947 17.9625 -5.41898 -5.11024e-008 56.4576 1.57986 -24.5699 1.18468 0.257986 4.40624 -16.9547 -6.18528 
-237.944 88.4545 -201.822 5.63364 -7.40538 46.2202 0 0 0 9.40809 0.580396 5.07945 -6.61694 8.16537 6.64767 12.7582 6.89561 -6.40283 -5.8599 4.24858 -0.327361 -24.8265 3.42275 -7.49413 -37.8482 12.0665 11.3447 -35.1904 5.35641 -97.541 -11.0818 -0.788632 8.11597 19.4298 4.93324 15.3514 42.6732 1.60116 -10.0104 21.5741 0.0483251 90.1222 10.5029 -0.196963 -2.14269 1.77059 -31.3112 14.7766 1.89346e-007 43.6803 -21.1739 15.1858 1.54448 -0.205895 -0.330046 -0.969554 1.69732 0.567412 13.0425 -8.37908 2.42086e-006 67.7382 -10.9305 -22.474 -7.58693 -1.50947 3.6367 -13.4334 -5.99068 
-233.056 86.8335 -197.011 10.3715 -6.35991 45.903 0 0 0 4.01522 5.19001 3.50731 -5.92309 6.99165 5.17137 12.7069 3.73938 -4.76917 -4.91145 6.30996 0.81137 -26.3811 3.43532 -7.03035 -34.2314 12.6368 5.67434 -37.5976 3.7158 -94.8108 -11.8743 -0.986661 9.46616 21.6268 4.95675 14.0708 42.6072 0.529196 -9.4016 20.8885 0.272232 90.7133 11.4733 -0.237077 -2.3596 -2.66296 -27.9538 14.0534 6.66696e-007 53.2283 -16.0542 26.1436 -3.35431 0.779043 0.439347 -11.8709 2.53497 -6.01183 5.75604 -8.15027 -1.27117e-006 80.7443 -15.5412 -26.4573 -14.9069 -3.52304 4.14347 -15.8373 -7.145 
-228.164 85.3696 -192.469 19.3076 -5.61788 52.0137 0 0 0 -3.68641 16.1156 -0.342529 -4.34815 4.65694 0.0780963 14.3931 2.1444 -3.30794 -5.43674 5.95579 2.74579 -25.1426 3.53774 -7.75241 -34.1456 11.62 0.129847 -37.8465 1.33621 -91.7191 -12.3786 -1.00996 9.29282 22.0452 4.92494 13.7209 44.0239 -0.297059 -9.12881 23.5569 0.342789 90.7862 9.91777 -0.194129 -2.23711 -12.4896 -18.918 7.07007 -6.79143e-008 59.1422 -11.8282 27.5958 -13.1842 3.25131 -0.0307244 -9.3115 4.01432 -14.781 3.20489 -10.8382 -2.02691e-005 88.9534 -12.7663 -33.257 -18.0689 -5.43745 3.9916 -15.0803 -6.53978 
-223.649 84.5627 -187.834 15.8797 -4.61955 46.3341 0 0 0 -2.96334 12.0372 -0.418994 -4.58526 6.13977 0.267559 14.4975 3.85495 -1.38857 -5.40823 3.98687 4.7732 -24.9756 3.67253 -8.23814 -33.2064 11.0716 -4.40667 -34.7782 -1.80606 -87.4015 -14.367 -0.670568 5.31665 22.5069 4.92883 13.4775 43.5331 -0.457868 -8.54064 24.9818 0.324081 90.6955 9.18421 -0.130162 -1.62045 -8.95739 -19.7111 12.5539 1.57583e-006 64.3248 -10.2493 32.3846 -19.8549 5.81887 0.138796 -12.5723 5.27842 -12.9515 -14.5826 -5.06897 180 87.2215 166.443 -31.3266 -21.5142 -6.09862 3.58137 -13.1587 -6.65969 
-219.239 83.7608 -182.833 11.6078 -3.03887 39.649 0 0 0 -1.39252 6.813 -0.0367103 -4.9717 6.5806 0.725891 12.0635 6.71979 0.420118 -4.47143 4.42658 5.817 -25.5673 3.76606 -8.32154 -30.0426 11.4864 -8.90803 -39.4395 -3.88823 -85.2873 -14.7 -0.920061 7.12379 22.01 4.93566 13.7777 43.4408 -0.590424 -9.15412 25.9337 0.807716 91.6604 9.51019 -0.214588 -2.57928 -3.92891 -19.9162 19.7387 -8.80559e-007 68.3832 -9.62739 34.1075 -28.6267 8.95055 0.199127 -11.4548 3.95402 -6.74239 -31.6305 2.07621 1.43502e-005 89.4901 -15.7382 -32.2041 -20.8085 -6.06811 3.55347 -12.9885 -7.61886 
-214.016 83.6001 -177.745 11.5281 -4.86411 39.4057 0 0 0 -0.20991 9.17733 -2.29373 -3.92316 5.42313 -1.71658 12.0657 8.2419 1.43546 -5.77874 5.29419 7.3548 -23.588 3.73855 -8.97367 -28.9377 12.3854 -13.8026 -37.9128 -6.92211 -81.2036 -16.3058 -0.979296 6.82772 21.8373 4.80239 13.413 43.182 -0.541682 -9.96004 23.5786 1.38028 93.159 6.73628 -0.125964 -2.14006 -3.61135 -12.1247 19.8046 8.4049e-008 68.2216 -8.20459 36.3906 -34.5161 11.6608 0.409963 -11.7566 2.67075 -4.43042 -37.2766 2.13205 -3.73334e-006 79.7675 -14.5679 -32.6602 -15.6185 -4.60215 3.99653 -15.1997 -8.23831 
-209.013 84.0165 -172.723 10.0976 -7.36526 38.9307 0 0 0 1.59076 11.9093 -4.25659 -0.703432 3.61102 -4.03134 10.9093 10.3418 2.10087 -6.78346 4.55662 8.03216 -23.181 3.92436 -9.75916 -26.8722 11.9491 -18.74 -31.1868 -9.52042 -74.7171 -23.9993 -0.905148 4.25664 20.462 4.54395 13.2719 42.7766 0.260666 -9.84072 22.3601 1.83534 94.452 5.16937 -0.163284 -3.61594 -1.90668 -4.5173 18.9275 1.25348e-006 66.7858 -8.33288 31.026 -39.4129 11.3553 0.523355 -10.5519 1.17903 -0.990961 -39.4925 -0.318637 5.85967e-007 63.737 -13.3615 -30.2744 -4.69544 -1.27086 4.14241 -15.8292 -7.10886 
